<?xml version="1.0" encoding="utf-8"?>
<!-- Generator: Adobe Illustrator 16.0.0, SVG Export Plug-In . SVG Version: 6.00 Build 0)  -->
<!DOCTYPE svg PUBLIC "-//W3C//DTD SVG 1.1//EN" "http://www.w3.org/Graphics/SVG/1.1/DTD/svg11.dtd">
<svg version="1.1" id="Слой_1" xmlns="http://www.w3.org/2000/svg" xmlns:xlink="http://www.w3.org/1999/xlink" x="0px" y="0px"
	 width="22px" height="44px" viewBox="0 0 22 44" enable-background="new 0 0 22 44" xml:space="preserve">
<rect fill="#008AD6" width="22" height="22"/>
<rect y="22" fill="#F9DD16" width="22" height="22"/>
<path d="M7.597,38.352c-0.402-0.027-0.73-0.117-1.004-0.273c-0.15-0.085-0.278-0.182-0.392-0.295
	c-0.183-0.18-0.331-0.391-0.454-0.648c-0.122-0.251-0.216-0.535-0.289-0.871c-0.044-0.209-0.078-0.416-0.1-0.627
	c-0.017-0.162-0.026-0.248-0.03-0.335l-0.004-0.108C5.321,35.096,5.318,35,5.307,34.905c-0.011-0.095-0.007-0.188-0.005-0.28
	l0.001-5.624L6.373,29l-0.001,1.216c0,1.501-0.001,3.001,0.003,4.502c0,0.167,0.012,0.337,0.025,0.505
	c0.021,0.271,0.057,0.588,0.154,0.907c0.087,0.285,0.216,0.503,0.394,0.667c0.188,0.172,0.416,0.271,0.699,0.303
	c0.051,0.006,0.104,0.008,0.155,0.008c0.091,0,0.181-0.008,0.271-0.024c0.414-0.078,0.726-0.336,0.901-0.747
	c0.098-0.23,0.162-0.484,0.2-0.802c0.019-0.155,0.03-0.312,0.041-0.468c0.003-0.051,0.002-0.102,0-0.151
	c0.02-0.203,0.02-0.31,0.019-0.413v-5.501h1.071l0.002,5.688l-0.005,0.129c-0.003,0.087-0.005,0.173-0.018,0.259l-0.005,0.14
	c-0.017,0.281-0.043,0.516-0.08,0.747c-0.043,0.28-0.11,0.556-0.198,0.817c-0.091,0.273-0.209,0.511-0.361,0.727
	c-0.185,0.264-0.412,0.461-0.695,0.604c-0.239,0.122-0.509,0.198-0.826,0.23c-0.105,0.013-0.212,0.019-0.318,0.019
	C7.733,38.357,7.665,38.355,7.597,38.352z M17.563,38.158l-0.324-1.418c-0.059-0.26-0.18-0.354-0.444-0.354h-2.396
	c-0.2,0-0.369,0.077-0.416,0.295l-0.342,1.478h-1.062L14.838,29h1.527l2.256,9.159L17.563,38.158L17.563,38.158z M15.346,30.762
	l-1.013,4.406h2.535l-1.019-4.455h-0.272L15.346,30.762z"/>
<path fill="#FFD500" d="M15.38,5.014v9.914c0,0.491-0.292,0.934-0.746,1.133L11,17.66l-3.634-1.6
	c-0.454-0.199-0.746-0.642-0.747-1.133V5.014H15.38 M16,4.396H6v10.531c0,0.715,0.417,1.393,1.116,1.699L11,18.335l3.884-1.708
	C15.583,16.32,16,15.643,16,14.928V4.396L16,4.396z M11,6.366c-0.232,0.265-0.375,0.611-0.375,0.99
	c0.016,0.836,0.117,1.668,0.125,2.5c0.019,0.778-0.214,1.509-0.499,2.221c-0.093,0.195-0.197,0.388-0.298,0.581l-0.301-0.06
	c-0.271-0.055-0.447-0.319-0.392-0.588c0.047-0.237,0.255-0.401,0.487-0.401l0.109,0.01l-0.243-2.04
	c-0.08-0.907-0.548-1.705-1.239-2.223C8.256,7.268,8.131,7.187,8,7.114v7.243h1.671c0.125,0.68,0.499,1.271,1.023,1.676
	c0.125,0.087,0.23,0.2,0.305,0.333c0.076-0.133,0.181-0.246,0.306-0.333c0.524-0.404,0.898-0.996,1.023-1.676H14V7.114
	c-0.131,0.072-0.256,0.153-0.375,0.242c-0.689,0.518-1.159,1.315-1.238,2.223l-0.244,2.04l0.109-0.01
	c0.232,0,0.439,0.164,0.486,0.401c0.056,0.269-0.12,0.533-0.391,0.588l-0.302,0.06c-0.103-0.193-0.205-0.386-0.298-0.581
	c-0.284-0.712-0.518-1.442-0.499-2.221c0.009-0.832,0.11-1.664,0.125-2.5C11.375,6.978,11.233,6.631,11,6.366z M8.5,8.157
	C8.824,8.539,9.042,9.01,9.104,9.532l0.203,1.681c-0.257,0.127-0.451,0.362-0.524,0.645H8.5V8.157z M13.5,8.157v3.7h-0.284
	c-0.073-0.282-0.267-0.518-0.524-0.645l0.203-1.681C12.958,9.01,13.176,8.539,13.5,8.157z M11,11.539
	c0.134,0.439,0.318,0.857,0.549,1.245c-0.219,0.066-0.408,0.195-0.549,0.37c-0.14-0.175-0.329-0.304-0.548-0.37
	C10.681,12.396,10.866,11.979,11,11.539z M8.5,12.358h0.284c0.089,0.346,0.359,0.618,0.701,0.712l0.24,0.055
	c-0.064,0.233-0.099,0.48-0.099,0.733H8.5V12.358z M13.216,12.358H13.5v1.5h-1.125c0-0.253-0.035-0.5-0.1-0.733l0.24-0.055
	C12.857,12.977,13.127,12.704,13.216,12.358L13.216,12.358z M10.213,13.24c0.302,0.044,0.537,0.303,0.537,0.618h-0.625
	C10.125,13.644,10.157,13.438,10.213,13.24z M11.787,13.24c0.056,0.197,0.088,0.403,0.088,0.618H11.25
	C11.25,13.543,11.484,13.284,11.787,13.24z M10.182,14.357h0.568v1.054C10.475,15.123,10.274,14.761,10.182,14.357z M11.25,14.357
	h0.568c-0.092,0.403-0.293,0.766-0.568,1.054V14.357z"/>
</svg>
